# xmcd
#
# Track frame offsets: 
#        150
#        450
#        15997
#        24439
#        41361
#        54592
#        73988
#        85946
#        95644
#        109691
#        127065
#        143249
#
# Disc length: 2117 seconds
#
# Revision: 0
# Processed by: cddbd v1.5.2PL0 Copyright (c) Steve Scherf et al.
# Submitted via: ExactAudioCopy v1.3
#
DISCID=9808430c
DTITLE=Rick Derringer - The Singles A's And B's [disk 1]
DYEAR=2007
DGENRE=Blues Rock
TTITLE0=Teenage Love Affair
TTITLE1=Joy Ride
TTITLE2=Rock And Roll Hoochie Koo
TTITLE3=Time Warp
TTITLE4=Slide On Over Slinky
TTITLE5=Cheap Tequila
TTITLE6=It's Raining
TTITLE7=Hang On Sloopy
TTITLE8=Skyscraper Blues
TTITLE9=Gimme More
TTITLE10=Let Me In
TTITLE11=You Can Have It
EXTD=
EXTT0=
EXTT1=
EXTT2=
EXTT3=
EXTT4=
EXTT5=
EXTT6=
EXTT7=
EXTT8=
EXTT9=
EXTT10=
EXTT11=
PLAYORDER=
